# xmcd CD database file
#
# Track frame offsets:
#	150
#	15883
#	24565
#	35158
#	46180
#	56585
#	71395
#	81981
#	98423
#	140272
#	157762
#	169521
#
# Disc length: 2442 seconds
#
# Revision: 0
# Processed by: cddbd v1.5.1PL0 Copyright (c) Steve Scherf et al.
# Submitted via: CDex 1.50
#
DISCID=8309880c
DTITLE=Rita Reys - Rita Reys in Poland
DYEAR=1900
DGENRE=Jazz
TTITLE0=The Music Goes Round And Around
TTITLE1=I Cried For You
TTITLE2=Get Out Of Town
TTITLE3=Stompin' At The Savoy
TTITLE4=Fly Me To The Moon
TTITLE5=I Remember Clifford
TTITLE6=Love For Sale
TTITLE7=Don't Get Around Much Anymore
TTITLE8=Airegin
TTITLE9=Willow Weep For Me
TTITLE10=Bluesette
TTITLE11=Summertime
EXTD=
EXTT0=
EXTT1=
EXTT2=
EXTT3=
EXTT4=
EXTT5=
EXTT6=
EXTT7=
EXTT8=
EXTT9=
EXTT10=
EXTT11=
PLAYORDER=
